External Loads File
version=1
nRows=46
nColumns=13
Range=5.000000e-03-10 seconds
endheader
time 	forceRightX 	forceRightY 	forceRightZ 	pointRightX 	pointRightY 	pointRightZ 	forceLeftX 	forceLeftY 	forceLeftZ 	pointLeftX 	pointLeftY 	pointLeftZ 		
5.005000 9.507310 -15.703803 -0.000000 0.075405 0.326832 -0.119611 -264.583710 721.989719 -0.000000 0.327523 0.277365 -0.364205
5.010000 6.797920 -15.430898 -0.000000 0.078864 0.337246 -0.119881 -246.718903 736.489180 -0.000000 0.324581 0.266887 -0.364248
5.015000 3.334178 -17.181936 -0.000000 0.082794 0.347557 -0.120267 -224.240774 750.367915 -0.000000 0.321037 0.256037 -0.364254
5.020000 -1.161822 -20.865509 -0.000000 0.087289 0.357640 -0.120613 -200.886378 762.216797 -0.000000 0.316972 0.246076 -0.364061
5.025000 -7.044224 -26.173975 -0.000000 0.092374 0.368619 -0.120931 -171.721320 772.972692 -0.000000 0.312194 0.236389 -0.364084
5.030000 -14.466309 -32.579226 -0.000000 0.097925 0.377908 -0.121402 -135.496308 782.028758 -0.000000 0.307075 0.223440 -0.363997
5.035000 -22.741249 -39.850706 -0.000000 0.104045 0.387482 -0.121792 -105.502999 786.605549 -0.000000 0.301547 0.214300 -0.363904
5.040000 -31.294164 -47.860712 -0.000000 0.110612 0.396759 -0.122183 -83.037978 787.159209 -0.000000 0.295660 0.209303 -0.364372
5.045000 -40.751379 -55.662334 -0.000000 0.117769 0.405678 -0.122483 -50.914173 785.424956 -0.000000 0.289163 0.201002 -0.364192
5.050000 -50.197489 -63.340545 -0.000000 0.124954 0.414312 -0.123007 -20.412871 779.815104 -0.000000 0.282254 0.193468 -0.364154
5.055000 -59.444324 -70.615621 -0.000000 0.132303 0.422402 -0.123670 9.039457 770.418388 -0.000000 0.274802 0.186256 -0.363523
5.060000 -68.343377 -77.208714 -0.000000 0.140380 0.430112 -0.124172 37.475753 757.340884 -0.000000 0.267157 0.179593 -0.363446
5.065000 -76.614136 -82.965342 -0.000000 0.148523 0.437440 -0.124703 63.501425 740.821497 -0.000000 0.259188 0.173429 -0.363267
5.070000 -84.203313 -87.504769 -0.000000 0.157308 0.444230 -0.124980 88.046925 721.008142 -0.000000 0.250860 0.168083 -0.363124
5.075000 -90.724009 -90.703198 -0.000000 0.166026 0.450313 -0.125138 109.469783 698.327785 -0.000000 0.242283 0.163298 -0.362996
5.080000 -96.176460 -92.013053 -0.000000 0.174605 0.455941 -0.126128 129.772242 672.796603 -0.000000 0.233438 0.155427 -0.362819
5.085000 -100.024209 -91.476600 -0.000000 0.183820 0.460849 -0.126487 147.101601 645.097101 -0.000000 0.224454 0.149410 -0.362565
5.090000 -101.700352 -89.408382 -0.000000 0.192756 0.464902 -0.126866 159.478303 616.145595 -0.000000 0.215293 0.152745 -0.362337
5.095000 -101.899050 -84.967810 -0.000000 0.202111 0.468731 -0.127189 172.881246 584.519441 -0.000000 0.205987 0.144172 -0.362081
5.100000 -100.112666 -78.926233 -0.000000 0.211681 0.471443 -0.127404 183.850668 550.717107 -0.000000 0.196552 0.142501 -0.361781
5.105000 -96.627738 -71.352303 -0.000000 0.220763 0.473580 -0.127467 193.262756 513.852027 -0.000000 0.186989 0.147715 -0.361539
5.110000 -91.512373 -62.729426 -0.000000 0.229567 0.475043 -0.127332 199.330340 473.894128 -0.000000 0.177760 0.147460 -0.361245
5.115000 -85.349499 -52.911470 -0.000000 0.238376 0.475899 -0.127436 203.052735 429.870605 -0.000000 0.168558 0.147712 -0.361079
5.120000 -78.507030 -42.047439 -0.000000 0.246792 0.476076 -0.127376 203.271272 381.902536 -0.000000 0.159602 0.148618 -0.360912
5.125000 -71.506262 -29.972765 -0.000000 0.255115 0.475546 -0.127185 199.958414 330.031150 -0.000000 0.150973 0.150160 -0.360730
5.130000 -64.765829 -16.611370 -0.000000 0.263010 0.474400 -0.126992 192.475834 275.239368 -0.000000 0.142773 0.152317 -0.360595
5.135000 -58.721886 -1.695320 -0.000000 0.270683 0.472728 -0.126841 181.123809 218.645998 -0.000000 0.134916 0.155069 -0.360370
5.140000 -53.699186 14.981789 -0.000000 0.277768 0.470150 -0.126539 166.085879 162.067174 -0.000000 0.127482 0.158396 -0.360257
5.145000 -49.926225 33.773775 -0.000000 0.284369 0.466697 -0.126245 148.199974 107.273319 -0.000000 0.120279 0.162278 -0.359919
5.150000 -47.605453 55.022871 -0.000000 0.290325 0.462732 -0.125975 128.252731 56.440642 -0.000000 0.113351 0.166697 -0.359557
5.155000 -46.905597 79.286809 -0.000000 0.295866 0.458373 -0.125340 107.356307 11.435832 -0.000000 0.106719 0.171630 -0.359368
5.160000 -48.131553 107.272466 -0.000000 0.300565 0.453481 -0.125211 86.592929 -26.063471 -0.000000 0.100494 0.177125 -0.358700
5.165000 -51.593461 139.957313 -0.000000 0.304592 0.448102 -0.124740 67.018171 -55.041945 -0.000000 0.094655 0.183170 -0.357826
5.170000 -57.779281 178.320577 -0.000000 0.308137 0.442193 -0.123963 49.576903 -75.011452 -0.000000 0.089164 0.189319 -0.357277
5.175000 -66.891285 223.164545 -0.000000 0.311181 0.435080 -0.123419 34.935366 -86.253872 -0.000000 0.084010 0.195695 -0.356821
5.180000 -79.189635 274.595732 -0.000000 0.313957 0.427592 -0.122997 23.633958 -89.699069 -0.000000 0.079035 0.202655 -0.356761
5.185000 -94.223792 331.994091 -0.000000 0.316685 0.419414 -0.122273 15.834376 -86.977922 -0.000000 0.074142 0.210132 -0.357170
5.190000 -110.919414 393.949006 -0.000000 0.319555 0.410368 -0.121448 11.482628 -80.059592 -0.000000 0.069652 0.218295 -0.357079
5.195000 -128.191049 458.214867 -0.000000 0.322425 0.400670 -0.121005 10.411510 -70.885755 -0.000000 0.065519 0.226882 -0.356920
5.200000 -144.190084 522.138289 -0.000000 0.325330 0.390679 -0.120752 12.045013 -61.068756 -0.000000 0.061769 0.236103 -0.356929
5.205000 -157.634593 582.681693 -0.000000 0.327668 0.380421 -0.120660 15.611372 -51.618202 -0.000000 0.058469 0.245787 -0.356835
5.210000 -166.409319 637.317851 -0.000000 0.329589 0.369524 -0.120054 20.149962 -42.890960 -0.000000 0.055684 0.255652 -0.356761
5.215000 -171.028196 683.524710 -0.000000 0.331269 0.358940 -0.119665 25.046045 -34.585928 -0.000000 0.053552 0.265756 -0.356683
5.220000 -170.556490 720.094492 -0.000000 0.332537 0.348304 -0.119078 29.858574 -26.142859 -0.000000 0.051853 0.275993 -0.356637
5.225000 -164.578637 746.597736 -0.000000 0.333572 0.337437 -0.119426 34.493188 -17.029223 -0.000000 0.050743 0.286368 -0.356557
5.230000 -155.403222 762.815728 -0.000000 0.334004 0.327051 -0.119067 39.106016 -6.816146 -0.000000 0.050180 0.296920 -0.356473
